<svg xmlns="http://www.w3.org/2000/svg" width="2000" height="383" viewBox="0 0 2000 383" version="1.1"><path d="M 168 2.689 C 151.699 4.405, 129.364 10.770, 115.967 17.517 C 106.048 22.512, 89.607 33.804, 79.986 42.230 C 41.053 76.325, 14.682 128.539, 5.353 190 C 2.874 206.335, 2.858 241.434, 5.324 256.500 C 16.330 323.751, 52.233 366.475, 107.025 377.521 C 111.136 378.350, 121.250 379.309, 129.500 379.652 C 176.608 381.612, 215.292 366.496, 250.545 332.354 C 278.048 305.717, 301.005 263.685, 311.363 221 C 317.637 195.144, 318.502 187.497, 318.484 158 C 318.471 137.066, 318.099 129.504, 316.713 122 C 309.680 83.920, 296.851 57.400, 275.112 36 C 255.531 16.725, 234.171 6.538, 206.026 3.050 C 198.107 2.069, 175.892 1.858, 168 2.689 M 1063.500 2.659 C 1043.927 5.007, 1023.572 10.755, 1007.095 18.587 C 972.156 35.195, 949.393 59.760, 941.385 89.500 C 939.855 95.181, 939.510 99.893, 939.551 114.500 C 939.599 131.429, 939.768 133.006, 942.392 141 C 950.924 166.991, 967.646 185.173, 1015.500 220.492 C 1035.861 235.520, 1050.608 247.612, 1055.887 253.609 C 1058.166 256.198, 1061.486 261.273, 1063.265 264.887 C 1066.320 271.092, 1066.500 272.072, 1066.496 282.479 C 1066.492 292.857, 1066.304 293.884, 1063.272 300.089 C 1059.605 307.591, 1051.631 316.392, 1044.975 320.282 C 1038.480 324.078, 1028.764 326.359, 1022.582 325.539 C 1007.251 323.505, 994.752 310.326, 987.876 288.944 C 983.647 275.793, 981.976 263.796, 981.302 241.750 C 980.886 228.139, 980.349 222, 979.573 222 C 978.954 222, 974.708 222.469, 970.138 223.042 C 921.952 229.084, 891.259 281.302, 909.503 326.201 C 918.092 347.338, 935.556 363.524, 959.495 372.535 C 973.856 377.940, 996.779 380.415, 1018.376 378.894 C 1042.924 377.164, 1063.544 371.436, 1086.500 359.970 C 1104.341 351.058, 1116.778 342.211, 1130.040 329 C 1146.564 312.537, 1156.586 295.782, 1161.668 276.119 C 1163.872 267.589, 1164.106 264.971, 1163.734 253 C 1163.388 241.864, 1162.876 238.256, 1160.809 232.398 C 1153.373 211.321, 1135.476 195.234, 1093.233 171.653 C 1062.313 154.393, 1048.289 144.728, 1040.191 135.099 C 1030.241 123.267, 1026.758 114.082, 1026.690 99.500 C 1026.610 82.351, 1030.782 73.329, 1042.205 65.946 C 1049.726 61.085, 1054.577 59.611, 1063 59.629 C 1077.075 59.658, 1089.223 69.042, 1094.482 83.948 C 1098.022 93.982, 1098.446 116.406, 1095.331 128.817 L 1094.708 131.299 1103.104 130.616 C 1116.507 129.525, 1124.831 127.373, 1135 122.369 C 1157.706 111.196, 1171.168 89.304, 1169.664 66 C 1168.223 43.661, 1155.303 25.094, 1132.851 13.099 C 1118.600 5.484, 1101.200 1.915, 1079.500 2.156 C 1072.350 2.235, 1065.150 2.462, 1063.500 2.659 M 1553.226 17.445 C 1543.712 20.526, 1534.128 26.306, 1525.661 34.069 C 1518.045 41.053, 1518.115 40.732, 1521.902 51.148 C 1529.511 72.081, 1526.782 118.209, 1512.520 209.676 C 1497.544 305.723, 1497.512 305.950, 1496.418 321.500 C 1494.909 342.972, 1502.352 358.733, 1517.253 365.615 C 1523.125 368.327, 1524.280 368.500, 1536.500 368.500 C 1548.944 368.500, 1549.756 368.372, 1555.500 365.500 C 1560.406 363.047, 1562.088 361.513, 1564.723 357.090 C 1566.495 354.114, 1568.306 349.860, 1568.745 347.636 L 1569.545 343.592 1571.638 346.897 C 1574.515 351.441, 1584.598 361.605, 1589.770 365.176 C 1609.791 378.997, 1640.742 382.251, 1665.060 373.092 C 1681.753 366.806, 1699.394 351.778, 1711.467 333.561 C 1732.288 302.142, 1743.317 261.013, 1743.258 215 C 1743.222 186.633, 1739.608 167.051, 1731.369 150.579 C 1722.531 132.912, 1707.366 119.624, 1692 116.085 C 1685.378 114.560, 1672.275 114.780, 1665.460 116.532 C 1646.533 121.395, 1625.093 136.782, 1608.575 157.356 C 1604.765 162.101, 1601.522 165.856, 1601.368 165.701 C 1601.213 165.546, 1601.957 160.038, 1603.020 153.460 C 1608.059 122.295, 1610.324 98.868, 1610.413 77 C 1610.507 53.704, 1609.751 48.692, 1604.454 37.494 C 1595.692 18.974, 1574.327 10.612, 1553.226 17.445 M 155.549 70.113 C 127.366 79.805, 105.651 119.287, 97.864 175 C 96.158 187.207, 96.129 222.725, 97.816 234.500 C 102.091 264.347, 111.936 287.968, 125.784 301.599 C 141.219 316.792, 164.938 317.919, 183.029 304.319 C 216.784 278.945, 235.493 197.801, 222.994 130.976 C 216.912 98.457, 203.003 76.419, 184.443 69.895 C 176.942 67.259, 163.556 67.360, 155.549 70.113 M 1892.500 115.100 C 1852.854 120.756, 1819.173 136.919, 1801.962 158.547 C 1784.148 180.935, 1783.503 210.911, 1800.364 232.824 C 1809.907 245.225, 1822.413 254.675, 1855.500 274.487 C 1878.299 288.139, 1887.651 294.706, 1893.406 301.107 C 1902.807 311.562, 1903.385 324.288, 1894.878 333.516 C 1889.109 339.775, 1883.175 342.292, 1874 342.374 C 1867.496 342.431, 1865.530 341.989, 1859.199 339.048 C 1841.797 330.965, 1831.665 311.585, 1830.287 283.750 L 1829.706 272 1823.811 272 C 1802.865 272, 1781.423 283.041, 1770.943 299.221 C 1755.300 323.374, 1767.269 353.129, 1799 368.973 C 1814.402 376.663, 1829.044 379.903, 1852.091 380.721 C 1884.831 381.882, 1912.574 376.415, 1939.846 363.429 C 1954.604 356.401, 1963.607 350.350, 1973.715 340.664 C 1988.231 326.754, 1995.324 313.488, 1996.617 297.833 C 1997.816 283.318, 1993.962 272.309, 1983.927 261.581 C 1972.410 249.269, 1962.164 242.665, 1927.190 225.008 C 1916.019 219.368, 1903.620 212.626, 1899.637 210.026 C 1890.225 203.882, 1881.976 195.722, 1879.074 189.686 C 1876.264 183.840, 1875.333 174.144, 1876.992 168 C 1880.284 155.813, 1896.131 150.435, 1909.161 157.082 C 1923.272 164.281, 1929.975 175.819, 1931.520 195.568 L 1932.219 204.504 1942.360 203.875 C 1961.172 202.708, 1974.067 197.825, 1983.890 188.149 C 1991.386 180.766, 1994.347 174.592, 1994.834 165.333 C 1995.293 156.589, 1994.067 152.512, 1988.380 143.879 C 1978.514 128.903, 1962.286 119.407, 1940.074 115.611 C 1929.841 113.862, 1903.183 113.576, 1892.500 115.100 M 783.500 115.629 C 756.031 119.741, 734.858 127.947, 713.524 142.748 C 701.717 150.939, 682.866 170.349, 674.432 183 C 656.095 210.504, 647 239.452, 647 270.311 C 647 303.174, 658.895 332.800, 679.898 352.245 C 701.608 372.345, 729.103 381.167, 765.500 379.713 C 795.160 378.527, 823.669 369.690, 843.500 355.534 C 852.250 349.289, 864.161 336.347, 869.445 327.344 C 876.529 315.277, 880.975 299.282, 880.992 285.800 C 881.005 276.467, 879.291 276.643, 869.103 287.017 C 843.978 312.601, 805.601 325.294, 779.679 316.592 C 767.055 312.354, 758.531 305.924, 751.820 295.578 C 747.622 289.108, 743.614 277.627, 742.540 269 C 742.163 265.975, 741.654 262.781, 741.408 261.902 C 741.096 260.783, 744.193 261.910, 751.731 265.659 C 766.637 273.072, 778.888 276.092, 794.500 276.203 C 822.517 276.401, 844.199 267.214, 864.500 246.541 C 896.530 213.924, 900.028 167.391, 872.632 138.358 C 861.999 127.089, 851.581 121.423, 834.042 117.370 C 827.635 115.890, 790.342 114.605, 783.500 115.629 M 399.387 116.930 C 377.187 120.481, 357.834 135.250, 347.537 156.500 C 341.627 168.699, 339.077 183.048, 342.582 184.393 C 344.735 185.219, 344.336 185.397, 348.897 181.586 C 363.213 169.625, 376.146 175.132, 377.676 193.839 C 378.387 202.535, 376.577 212.686, 368.016 248 C 357.587 291.022, 355.945 299.701, 355.338 315 C 354.435 337.761, 358.707 350.877, 370.960 362.960 C 381.825 373.675, 394.741 378.769, 408.391 377.722 C 427.802 376.233, 444.203 362.887, 450.248 343.663 C 452.230 337.360, 452.492 334.460, 452.436 319.500 C 452.381 305.142, 452.012 301.101, 450.061 293.500 C 446.608 280.052, 446.069 259.494, 448.864 247.791 C 452.623 232.045, 459.907 219.029, 471.880 206.662 C 483.898 194.248, 495.288 188, 505.902 188 C 516.567 188, 519.732 193.354, 518.613 209.500 C 517.965 218.843, 515.321 232.469, 507.553 266.500 C 497.879 308.875, 497.588 333.039, 506.529 351.627 C 512.234 363.489, 524.837 373.100, 539.093 376.460 C 571.891 384.191, 611.890 360.022, 619.463 327.897 C 622.722 314.071, 620.444 308.232, 614.623 315.489 C 608.620 322.971, 598.583 325.310, 593.649 320.377 C 590.166 316.893, 589.012 312.283, 589.006 301.822 C 588.998 290.119, 590.068 282.744, 597.030 246.500 C 605.295 203.472, 606.084 197.884, 606.709 177.943 C 607.155 163.711, 606.936 158.790, 605.552 151.959 C 603.454 141.606, 598.465 130.531, 593.794 125.861 C 583.791 115.858, 564.464 113.456, 543.294 119.586 C 517.771 126.975, 491.229 148.595, 464.625 183.665 C 464.556 183.756, 464.498 177.906, 464.495 170.665 C 464.491 160.453, 464.071 156.266, 462.623 152 C 454.611 128.400, 439.855 117.518, 414.500 116.510 C 409 116.291, 402.199 116.481, 399.387 116.930 M 1254.500 116.648 C 1241.625 118.716, 1226.898 125.070, 1218.141 132.335 C 1203.859 144.183, 1195.822 159.581, 1194.853 176.951 C 1194.531 182.709, 1194.695 183.342, 1196.700 184.084 C 1198.545 184.767, 1199.256 184.322, 1201.106 181.328 C 1206.446 172.688, 1218.568 169.241, 1224.894 174.564 C 1232.077 180.608, 1231.674 191.889, 1223.008 227.358 C 1212.135 271.867, 1208.234 299.379, 1210.062 318.672 C 1214.742 368.071, 1252.530 391.399, 1294 370.492 C 1312.919 360.954, 1327.442 346.995, 1343.038 323.360 L 1349.730 313.219 1350.393 322.008 C 1352.109 344.736, 1360.106 359.649, 1376.135 370.009 C 1385.027 375.756, 1393.410 378.118, 1405 378.141 C 1415.674 378.162, 1421.429 377.087, 1430.955 373.293 C 1446.037 367.287, 1459.907 355.092, 1466.463 342.074 C 1470.015 335.020, 1473.793 319.509, 1472.671 316.585 C 1471.685 314.014, 1468.627 314.757, 1465.064 318.434 C 1457.210 326.537, 1443.490 328.470, 1437.937 322.255 C 1431.726 315.305, 1431.590 299.611, 1437.534 275.952 C 1438.853 270.701, 1444.022 253.151, 1449.021 236.952 C 1461.985 194.938, 1464.984 182.784, 1465.660 169.515 C 1466.577 151.509, 1463.322 141.383, 1453.210 130.781 C 1440.577 117.537, 1420.474 112.816, 1402.720 118.924 C 1391.042 122.942, 1381.728 129.473, 1375.037 138.335 C 1370.690 144.093, 1370.090 147.487, 1372.002 155.500 C 1374.118 164.366, 1375.064 181.096, 1374.023 191.243 C 1371.857 212.355, 1362.566 244.771, 1353.028 264.500 C 1334.606 302.603, 1310.592 318.859, 1301.733 299.223 C 1298.798 292.719, 1298.234 277.696, 1300.409 263.965 C 1301.304 258.316, 1305.139 239.475, 1308.932 222.097 C 1317.011 185.084, 1318 179.104, 1318 167.269 C 1318 152.311, 1314.487 142.567, 1305.771 133.352 C 1299.172 126.374, 1292.673 122.319, 1283.340 119.355 C 1275.763 116.949, 1261.159 115.578, 1254.500 116.648 M 782.945 160.450 C 761.245 168.445, 748.026 188.752, 743.080 221.692 C 741.442 232.601, 741.414 232.503, 746.750 234.791 C 759.536 240.273, 773.163 241.447, 784.145 238.012 C 797.313 233.893, 808.879 220.425, 814.644 202.500 C 820.782 183.414, 816.343 166.842, 803.500 160.896 C 798.760 158.701, 788.308 158.475, 782.945 160.450 M 1633.365 168.036 C 1621.091 170.638, 1603.368 196.994, 1592.034 229.500 C 1587.302 243.072, 1581.149 266.913, 1577.970 283.996 C 1576.169 293.677, 1576.020 296.125, 1577.027 299.496 C 1580.149 309.948, 1587.831 319.356, 1596.286 323.083 C 1604.004 326.484, 1614.528 326.341, 1622.340 322.729 C 1640.863 314.163, 1654.705 285.440, 1658.937 246.789 C 1661.592 222.535, 1658.618 196.041, 1651.446 180.058 C 1647.099 170.374, 1641.113 166.393, 1633.365 168.036" stroke="none" fill="#1c74ec" fill-rule="evenodd"/></svg>